<svg xmlns="http://www.w3.org/2000/svg" viewBox="0 0 900 1100"><defs><linearGradient id="bg" x1="0" y1="1" x2="1" y2="0"><stop stop-color="#071d2a"/><stop offset=".5" stop-color="#ff6148"/><stop offset="1" stop-color="#19ddd1"/></linearGradient></defs><rect width="900" height="1100" fill="url(#bg)"/><path d="M0 900Q200 730 430 800T900 900V1100H0Z" fill="#071d2a"/><g transform="translate(100 90)"><ellipse cx="355" cy="340" rx="180" ry="220" fill="#c77d58"/><path d="M185 340Q170 130 360 105Q555 135 535 340Q500 245 375 235Q280 250 185 340Z" fill="#1b2328"/><ellipse cx="300" cy="355" rx="14" ry="10" fill="#071d2a"/><ellipse cx="420" cy="355" rx="14" ry="10" fill="#071d2a"/><path d="M280 450Q360 500 445 445" fill="none" stroke="#071d2a" stroke-width="14" stroke-linecap="round"/><path d="M200 560Q350 520 495 570L575 880L145 880Z" fill="#101a20"/><path d="M225 590L110 350" stroke="#c77d58" stroke-width="70" stroke-linecap="round"/><path d="M485 590L610 350" stroke="#c77d58" stroke-width="70" stroke-linecap="round"/><path d="M130 355L45 270" stroke="#fff3e2" stroke-width="25" stroke-linecap="round"/><path d="M605 355L690 260" stroke="#fff3e2" stroke-width="25" stroke-linecap="round"/><path d="M230 690L130 770M470 690L585 765" stroke="#ff6148" stroke-width="30"/><path d="M335 650L370 850" stroke="#19ddd1" stroke-width="35"/></g><g fill="#ffc526"><path d="M80 170l17 35 39 4-29 25 8 38-35-21-35 21 8-38-29-25 39-4Z"/><path d="M750 720l14 30 33 4-25 21 7 32-29-17-29 17 7-32-25-21 33-4Z"/></g></svg>